<mxfile host="app.diagrams.net" modified="2023-12-11T16:34:23.882Z" agent="Mozilla/5.0 (Windows NT 10.0; Win64; x64) AppleWebKit/537.36 (KHTML, like Gecko) Chrome/120.0.0.0 Safari/537.36 Edg/120.0.0.0" version="22.1.7" etag="-f_FSlTpXKpZPwJMN8_h" type="github">
  <diagram name="Strona-1" id="wNuw-DycDW5I2JDrzU6R">
    <mxGraphModel>
      <root>
        <mxCell id="0" />
        <mxCell id="1" parent="0" />
      </root>
    </mxGraphModel>
  </diagram>
</mxfile>
